# xmcd
#
# Track frame offsets:
#	150
#	20930
#	41515
#	65262
#	88622
#	113115
#
# Disc length: 1896 seconds
#
# Revision: 1
# Processed by: cddbd v1.5.1PL0 Copyright (c) Steve Scherf et al.
# Submitted via: CDex 1.50Beta5
#
DISCID=49076606
DTITLE=メレンゲ - 少女プラシ-ボ
DYEAR=2003
DGENRE=Pop
TTITLE0=輝く蛍の輪
TTITLE1=燃えないゴミ
TTITLE2=声
TTITLE3=春雨の午後
TTITLE4=カッシーニ
TTITLE5=ユキノミチ
EXTD=
EXTT0=
EXTT1=
EXTT2=
EXTT3=
EXTT4=
EXTT5=
PLAYORDER=
